<?xml version="1.0" encoding="UTF-8"?>
<svg version="1.1" xmlns="http://www.w3.org/2000/svg" width="500" height="200">
<path d="M0 0 C1.83666382 1.58347886 3.38733045 3.17924405 5 5 C5.66 1.7 6.32 -1.6 7 -5 C10.52130364 -5.08133037 14.04070754 -5.14066172 17.5625 -5.1875 C18.55314453 -5.21263672 19.54378906 -5.23777344 20.56445312 -5.26367188 C28.83469214 -5.34609951 34.20939193 -4.10354785 40.4375 1.6875 C41.11683594 2.31011719 41.79617188 2.93273437 42.49609375 3.57421875 C43.24052734 4.27998047 43.24052734 4.27998047 44 5 C44.06058594 4.36191406 44.12117188 3.72382812 44.18359375 3.06640625 C44.30927734 1.82697266 44.30927734 1.82697266 44.4375 0.5625 C44.55931641 -0.67306641 44.55931641 -0.67306641 44.68359375 -1.93359375 C45 -4 45 -4 46 -5 C49.57618567 -5.25295179 53.16593234 -5.1852316 56.75 -5.1875 C57.75289063 -5.19974609 58.75578125 -5.21199219 59.7890625 -5.22460938 C60.76101563 -5.22654297 61.73296875 -5.22847656 62.734375 -5.23046875 C64.06807129 -5.23663208 64.06807129 -5.23663208 65.42871094 -5.24291992 C71.14646742 -4.70274069 74.26392843 -2.24094611 78 2 C80.20922896 5.05083999 80.47183554 8.14878713 80.39453125 11.89453125 C79.66805041 15.77149334 77.56844107 18.06463878 75 21 C74.34 21 73.68 21 73 21 C73 21.99 73 22.98 73 24 C73.66 24 74.32 24 75 24 C76.2890625 25.609375 76.2890625 25.609375 77.625 27.75 C78.07101562 28.44609375 78.51703125 29.1421875 78.9765625 29.859375 C80 32 80 32 80 36 C76.46451781 36.70425098 73.50195756 36.9564818 70 36 C67.84699679 33.32282498 66.3620563 30.53840434 64.73828125 27.515625 C63.24008967 24.87241746 63.24008967 24.87241746 60.79296875 24.046875 C58.3444586 23.73071915 58.3444586 23.73071915 55 24 C55.01160156 24.69867188 55.02320313 25.39734375 55.03515625 26.1171875 C55.04417969 27.02726562 55.05320312 27.93734375 55.0625 28.875 C55.07410156 29.77992187 55.08570313 30.68484375 55.09765625 31.6171875 C55 34 55 34 54 36 C51.03 36 48.06 36 45 36 C44.97421875 34.81921875 44.9484375 33.6384375 44.921875 32.421875 C44.86558603 30.86454677 44.80823886 29.30725653 44.75 27.75 C44.73582031 26.97269531 44.72164063 26.19539063 44.70703125 25.39453125 C44.50650929 20.53383509 44.50650929 20.53383509 41.953125 16.453125 C40.98632812 15.73382813 40.98632812 15.73382813 40 15 C39.38125 15.99 38.7625 16.98 38.125 18 C37.42375 18.99 36.7225 19.98 36 21 C35.34 21 34.68 21 34 21 C34.5053125 21.74765625 35.010625 22.4953125 35.53125 23.265625 C36.50578125 24.74289063 36.50578125 24.74289063 37.5 26.25 C38.47453125 27.71179688 38.47453125 27.71179688 39.46875 29.203125 C41 32 41 32 41 36 C37.86970337 36.50084746 35.11238973 36.67528195 32 36 C29.4109047 33.67144259 27.7446212 30.99159636 26 28 C24.37921338 24.82990528 24.37921338 24.82990528 21.8359375 24.48828125 C21.02382813 24.43027344 20.21171875 24.37226562 19.375 24.3125 C17.93125 24.209375 16.4875 24.10625 15 24 C15 27.96 15 31.92 15 36 C8.84765625 36.09765625 8.84765625 36.09765625 7 36 C6 35 6 35 5.8671875 31.91015625 C5.86976563 30.64042969 5.87234375 29.37070313 5.875 28.0625 C5.87242187 26.79535156 5.86984375 25.52820313 5.8671875 24.22265625 C6 21 6 21 7 19 C6.34 19 5.68 19 5 19 C4.87625 19.56847656 4.7525 20.13695313 4.625 20.72265625 C2.83329834 27.43033934 -0.13791284 31.26477118 -6 35 C-12.02224385 37.8636384 -18.59852981 37.1880029 -25 36 C-30.20059427 34.07385397 -34.30269765 31.16377158 -36.9765625 26.1796875 C-39.72863542 19.62100905 -39.9899401 13.88637731 -37.3125 7.3125 C-34.28903099 1.14886669 -30.3424907 -2.35729554 -24 -5 C-15.49647549 -7.83450817 -7.01251636 -4.98330395 0 0 Z M-27.8125 9.1875 C-29.36435497 12.86294598 -29.82119873 16.11451342 -29 20 C-26.96673332 23.67117594 -24.08721308 26.79787851 -20 28 C-15.79387303 28.46734744 -13.50894683 28.24967203 -9.6875 26.375 C-6.47702807 23.53783876 -5.70268743 22.21612459 -5 18 C-4.87401462 11.74657861 -4.87401462 11.74657861 -7.36328125 6.26171875 C-13.79246328 1.30557127 -22.96396211 3.33581633 -27.8125 9.1875 Z M16 4 C15.22157062 7.40562852 14.90021879 10.50765756 15 14 C17.58753156 15.29376578 19.54958985 15.16832397 22.4375 15.1875 C23.40558594 15.20167969 24.37367188 15.21585938 25.37109375 15.23046875 C28.23266727 15.19149451 28.23266727 15.19149451 31 13 C31.91115 10.03344954 31.91115 10.03344954 32 7 C29.2656934 4.2656934 27.23006445 4.04659335 23.421875 3.90234375 C22.09929687 3.91974609 22.09929687 3.91974609 20.75 3.9375 C19.41195312 3.95103516 19.41195312 3.95103516 18.046875 3.96484375 C17.37140625 3.97644531 16.6959375 3.98804687 16 4 Z M55 4 C54.67 7.3 54.34 10.6 54 14 C56.58008592 15.29004296 58.55741574 15.20410224 61.4375 15.25 C62.40558594 15.27578125 63.37367188 15.3015625 64.37109375 15.328125 C67.02169177 15.2160084 67.02169177 15.2160084 68.828125 13.64453125 C70.47414037 11.33462302 70.35494924 9.76860408 70 7 C67.33684806 4.33684806 65.34655932 4.05573507 61.640625 3.90234375 C60.45726562 3.91974609 60.45726562 3.91974609 59.25 3.9375 C57.8475 3.958125 56.445 3.97875 55 4 Z " fill="#EFEFEF" transform="translate(283,90)"/>
<path d="M0 0 C5.85643382 0.32145091 9.09200582 1.89093601 13.296875 5.953125 C16.65472065 9.75549197 19.42094138 13.90231717 22.21484375 18.125 C23.20970002 19.46217567 24.20894661 20.79610997 25.21484375 22.125 C25.2398999 21.49408447 25.26495605 20.86316895 25.29077148 20.21313477 C25.40638512 17.37103175 25.52926691 14.52928917 25.65234375 11.6875 C25.69166016 10.69427734 25.73097656 9.70105469 25.77148438 8.67773438 C25.81337891 7.73349609 25.85527344 6.78925781 25.8984375 5.81640625 C25.93509521 4.94185791 25.97175293 4.06730957 26.00952148 3.16625977 C26.21484375 1.125 26.21484375 1.125 27.21484375 0.125 C29.02734375 -0.0078125 29.02734375 -0.0078125 31.21484375 0 C31.93671875 -0.00257812 32.65859375 -0.00515625 33.40234375 -0.0078125 C35.21484375 0.125 35.21484375 0.125 36.21484375 1.125 C36.31591249 3.99764056 36.35454047 6.84573628 36.34765625 9.71875 C36.34861298 10.58060913 36.3495697 11.44246826 36.35055542 12.33044434 C36.35123725 14.15633212 36.34938279 15.98222231 36.34521484 17.80810547 C36.33986661 20.61301078 36.34515974 23.41775595 36.3515625 26.22265625 C36.35090172 27.99218786 36.34962056 29.76171936 36.34765625 31.53125 C36.34968048 32.37602905 36.35170471 33.22080811 36.35379028 34.09118652 C36.32979406 40.01004969 36.32979406 40.01004969 35.21484375 41.125 C31.9465675 42.18216453 29.4786597 42.21618623 26.21484375 41.125 C22.28929154 37.18800303 19.25234702 32.76365739 16.21484375 28.125 C15.20357422 26.61292969 15.20357422 26.61292969 14.171875 25.0703125 C13.52605469 24.09835938 12.88023437 23.12640625 12.21484375 22.125 C10.89484375 20.145 9.57484375 18.165 8.21484375 16.125 C7.88484375 24.375 7.55484375 32.625 7.21484375 41.125 C4.24484375 41.125 1.27484375 41.125 -1.78515625 41.125 C-3.65478343 39.25537282 -2.91401928 36.57836439 -2.92410278 34.09118652 C-2.92207855 33.24640747 -2.92005432 32.40162842 -2.91796875 31.53125 C-2.91892548 30.66939087 -2.9198822 29.80753174 -2.92086792 28.91955566 C-2.92154975 27.09366788 -2.91969529 25.26777769 -2.91552734 23.44189453 C-2.91017911 20.63698922 -2.91547224 17.83224405 -2.921875 15.02734375 C-2.92121422 13.25781214 -2.91993306 11.48828064 -2.91796875 9.71875 C-2.91999298 8.87397095 -2.92201721 8.02919189 -2.92410278 7.15881348 C-2.89590166 0.20277648 -2.89590166 0.20277648 0 0 Z " fill="#F6F6F6" transform="translate(206.78515625,84.875)"/>
<path d="M0 0 C-1.30506786 3.84861847 -2.78947365 6.10954709 -5.75 8.875 C-13.89629153 16.23313665 -13.89629153 16.23313665 -18 26 C-17.38442959 29.17867822 -16.56337996 32.15476827 -15 35 C-14.01 35.33 -13.02 35.66 -12 36 C-9.26393306 40.85903526 -7.0881939 46.39890536 -8 52 C-9.0625 54.8125 -9.0625 54.8125 -11 57 C-17.76964565 59.50182556 -24.59960418 56.65497901 -31 54 C-33.91455573 52.23471704 -36.43525302 50.23150839 -39 48 C-40.32949372 46.99490089 -41.66239773 45.99428263 -43 45 C-43.55985596 45.57556641 -44.11971191 46.15113281 -44.6965332 46.74414062 C-47.22737828 49.33718733 -49.76971646 51.91866162 -52.3125 54.5 C-53.19357422 55.40621094 -54.07464844 56.31242187 -54.98242188 57.24609375 C-55.82998047 58.10332031 -56.67753906 58.96054688 -57.55078125 59.84375 C-58.72120972 61.03774414 -58.72120972 61.03774414 -59.9152832 62.25585938 C-62 64 -62 64 -65 64 C-64.27936984 57.75453861 -58.19558459 53.19558459 -54 49 C-52.85663318 47.85132754 -51.73203107 46.68373068 -50.625 45.5 C-50.10164062 44.9534375 -49.57828125 44.406875 -49.0390625 43.84375 C-47.78482881 42.00296897 -47.78482881 42.00296897 -48.125 39.59765625 C-49.13234713 36.60709445 -50.54109949 34.50263933 -52.375 31.9375 C-56.07584165 26.27918838 -58.41627081 20.78708851 -59 14 C-57.8125 10.3125 -57.8125 10.3125 -56 8 C-52.37067168 6.18533584 -48.8934875 6.34217175 -45 7 C-38.89988002 9.39551172 -32.95568065 11.99571326 -28.328125 16.73828125 C-26.06280009 19.46453558 -26.06280009 19.46453558 -22 19 C-20.26680317 17.49404439 -20.26680317 17.49404439 -18.75 15.4375 C-15.69832289 11.72954824 -12.4544726 8.63521627 -8.7890625 5.54296875 C-6.84694423 3.9199246 -6.84694423 3.9199246 -4.6875 1.5625 C-3 0 -3 0 0 0 Z M-52 13 C-52.68241085 18.57302195 -51.50312359 21.7301429 -48.42578125 26.203125 C-45.86690357 29.42801193 -43.36356272 31.44058965 -39.5625 33 C-34.6024112 33 -31.54235174 29.51877123 -28.125 26.25 C-27.42375 25.5075 -26.7225 24.765 -26 24 C-27.82022447 18.5393266 -34.09824366 16.55143408 -38.97265625 13.9453125 C-42.4296878 12.2916072 -48.8483213 9.8483213 -52 13 Z M-34.34960938 35.46679688 C-34.83236328 35.95212891 -35.31511719 36.43746094 -35.8125 36.9375 C-36.31458984 37.41896484 -36.81667969 37.90042969 -37.33398438 38.39648438 C-38.56891177 39.58436692 -39.78624288 40.79049421 -41 42 C-33.29969216 47.943786 -25.08602706 53.70367631 -15 53 C-14.67 52.67 -14.34 52.34 -14 52 C-14.33434111 45.42462486 -15.66683301 41.3881093 -20.421875 36.5546875 C-25.58744437 31.89502441 -29.00764829 30.41165249 -34.34960938 35.46679688 Z " fill="#EAE9E9" transform="translate(201,74)"/>
<path d="M0 0 C2 1.1875 2 1.1875 3 4.1875 C-2.94 4.6825 -2.94 4.6825 -9 5.1875 C-9.57440025 10.70174241 -8.63742406 13.82047525 -5.484375 18.390625 C-1.33711028 23.41099808 2.75150459 24.45238289 9 25.1875 C9.495 26.1775 9.495 26.1775 10 27.1875 C9.55374268 27.56011963 9.10748535 27.93273926 8.64770508 28.31665039 C4.41496247 31.92851266 0.40915989 35.71397002 -3.48828125 39.68359375 C-3.96240448 40.16559235 -4.43652771 40.64759094 -4.92501831 41.14419556 C-6.89305372 43.14871513 -8.85780476 45.15625498 -10.8137207 47.17260742 C-12.26109696 48.66211499 -13.71760252 50.14217072 -15.17578125 51.62109375 C-16.03083252 52.49822021 -16.88588379 53.37534668 -17.7668457 54.27905273 C-20 56.1875 -20 56.1875 -23 56.1875 C-22.27936984 49.94203861 -16.19558459 45.38308459 -12 41.1875 C-10.85663318 40.03882754 -9.73203107 38.87123068 -8.625 37.6875 C-8.10164062 37.1409375 -7.57828125 36.594375 -7.0390625 36.03125 C-5.78482881 34.19046897 -5.78482881 34.19046897 -6.125 31.78515625 C-7.13234713 28.79459445 -8.54109949 26.69013933 -10.375 24.125 C-14.07584165 18.46668838 -16.41627081 12.97458851 -17 6.1875 C-15.8125 2.5 -15.8125 2.5 -14 0.1875 C-9.79456877 -1.91521561 -4.41542381 -1.19584395 0 0 Z " fill="#E9E9E9" transform="translate(159,81.8125)"/>
<path d="M0 0 C3.465 1.98 3.465 1.98 7 4 C7 7.96 7 11.92 7 16 C1 16 1 16 -1 15 C-1.02693575 12.87506859 -1.04636628 10.75004088 -1.0625 8.625 C-1.07410156 7.44164063 -1.08570313 6.25828125 -1.09765625 5.0390625 C-1 2 -1 2 0 0 Z " fill="#FCFCFC" transform="translate(290,109)"/>
<path d="M0 0 C-1.3140375 3.88146462 -2.84763705 6.18819881 -5.8125 9 C-6.52019531 9.680625 -7.22789062 10.36125 -7.95703125 11.0625 C-8.63121094 11.701875 -9.30539063 12.34125 -10 13 C-11.00358634 13.99640075 -12.00428872 14.9957296 -13 16 C-13.66 16.66 -14.32 17.32 -15 18 C-15.33 17.34 -15.66 16.68 -16 16 C-16.66 15.67 -17.32 15.34 -18 15 C-5.53246753 0 -5.53246753 0 0 0 Z " fill="#CFD0D1" transform="translate(201,74)"/>
<path d="M0 0 C2 2 2 2 2 5 C0.85424805 6.53393555 0.85424805 6.53393555 -0.73828125 8.13671875 C-1.31126953 8.71357422 -1.88425781 9.29042969 -2.47460938 9.88476562 C-3.08111328 10.47966797 -3.68761719 11.07457031 -4.3125 11.6875 C-4.90740234 12.29400391 -5.50230469 12.90050781 -6.11523438 13.52539062 C-6.69208984 14.09837891 -7.26894531 14.67136719 -7.86328125 15.26171875 C-8.65665894 16.05002075 -8.65665894 16.05002075 -9.46606445 16.85424805 C-11 18 -11 18 -14 18 C-13.28587446 11.81091196 -7.22125442 7.11016878 -3 3 C-2.401875 2.401875 -1.80375 1.80375 -1.1875 1.1875 C-0.795625 0.795625 -0.40375 0.40375 0 0 Z " fill="#D3DDDD" transform="translate(150,120)"/>
<path d="M0 0 C3.97289757 0.57567925 6.68018865 1.79937737 10.0625 3.9375 C12.99128483 5.77419557 15.87959153 7.50825738 19 9 C18.01 9.495 18.01 9.495 17 10 C17 10.66 17 11.32 17 12 C17.66 12.33 18.32 12.66 19 13 C11.41465463 11.77138772 4.92054799 7.87291212 0 2 C0 1.34 0 0.68 0 0 Z " fill="#D5D9D9" transform="translate(159,117)"/>
<path d="M0 0 C4.85155502 2.28308472 9.12671878 4.42455848 11.625 9.3125 C11.810625 10.034375 11.99625 10.75625 12.1875 11.5 C7.53322822 10.17020806 4.18206113 8.19021464 0.1875 5.5 C-2.11592752 4.39714683 -4.43910528 3.44935789 -6.8125 2.5 C-4.36545084 0.05295084 -3.48945871 -0.62034822 0 0 Z " fill="#B6B9B7" transform="translate(163.8125,84.5)"/>
<path d="M0 0 C0.33 0 0.66 0 1 0 C1.33 6.93 1.66 13.86 2 21 C4.64 21 7.28 21 10 21 C10 21.66 10 22.32 10 23 C8.52093108 23.02689216 7.04172517 23.04634621 5.5625 23.0625 C4.32693359 23.07990234 4.32693359 23.07990234 3.06640625 23.09765625 C1 23 1 23 0 22 C-0.08700342 20.36527118 -0.10701063 18.72685945 -0.09765625 17.08984375 C-0.09443359 16.10048828 -0.09121094 15.11113281 -0.08789062 14.09179688 C-0.07951172 13.05087891 -0.07113281 12.00996094 -0.0625 10.9375 C-0.05798828 9.89271484 -0.05347656 8.84792969 -0.04882812 7.77148438 C-0.03699913 5.1809334 -0.02051689 2.59049441 0 0 Z " fill="#A9A9A9" transform="translate(204,103)"/>
<path d="M0 0 C5.15464734 0.48324819 8.81550319 3.18610761 13 6 C9.57941647 6.94935687 7.43710089 7.11705779 4 6 C1.6875 4.0625 1.6875 4.0625 0 2 C0 1.34 0 0.68 0 0 Z " fill="#727573" transform="translate(159,117)"/>
<path d="M0 0 C-1.30613942 3.91841827 -2.83129848 6.32640809 -6 9 C-6.66 9 -7.32 9 -8 9 C-7.64598897 5.81390075 -7.16972964 4.20933322 -5.125 1.6875 C-3 0 -3 0 0 0 Z " fill="#A3A8A7" transform="translate(201,74)"/>
<path d="M0 0 C1.65 0.33 3.3 0.66 5 1 C4.07347299 2.17539996 3.13336613 3.34010577 2.1875 4.5 C1.66542969 5.1496875 1.14335937 5.799375 0.60546875 6.46875 C-1 8 -1 8 -4 8 C-3.40072174 4.64404172 -2.15377564 2.62198774 0 0 Z " fill="#7F8284" transform="translate(140,130)"/>
<path d="M0 0 C2.03125 0.05078125 2.03125 0.05078125 4.5 0.3125 C5.3146875 0.39113281 6.129375 0.46976562 6.96875 0.55078125 C7.97421875 0.77314453 7.97421875 0.77314453 9 1 C9.33 1.66 9.66 2.32 10 3 C7.36 3 4.72 3 2 3 C1.34 4.65 0.68 6.3 0 8 C-0.33 8 -0.66 8 -1 8 C-1.04241723 5.66705225 -1.04092937 3.33297433 -1 1 C-0.67 0.67 -0.34 0.34 0 0 Z " fill="#D6D6D8" transform="translate(205,85)"/>
<path d="M0 0 C0.99 0.66 1.98 1.32 3 2 C2.67 2.99 2.34 3.98 2 5 C-0.97 5 -3.94 5 -7 5 C-7 4.34 -7 3.68 -7 3 C-3.535 2.505 -3.535 2.505 0 2 C0 1.34 0 0.68 0 0 Z " fill="#B1B4B4" transform="translate(322,121)"/>
<path d="M0 0 C2.31 1.65 4.62 3.3 7 5 C6.67 5.66 6.34 6.32 6 7 C4.68 6.01 3.36 5.02 2 4 C1.34 4.99 0.68 5.98 0 7 C-1.125 2.25 -1.125 2.25 0 0 Z " fill="#B5B5B5" transform="translate(278,98)"/>
<path d="M0 0 C-0.66 1.32 -1.32 2.64 -2 4 C-3.65 3.67 -5.3 3.34 -7 3 C-4.49955934 -0.00052879 -4.2621484 0 0 0 Z " fill="#C3C8C8" transform="translate(148,127)"/>
<path d="M0 0 C1.65 0.33 3.3 0.66 5 1 C5.33 1.99 5.66 2.98 6 4 C4.02 4 2.04 4 0 4 C-0.33 3.34 -0.66 2.68 -1 2 C-0.67 1.34 -0.34 0.68 0 0 Z " fill="#E3E4E4" transform="translate(156,82)"/>
<path d="M0 0 C0.33 0.66 0.66 1.32 1 2 C3.02463255 2.65213292 3.02463255 2.65213292 5 3 C3.02253397 3.73080266 1.01927511 4.39421747 -1 5 C-1.66 4.67 -2.32 4.34 -3 4 C-3 3.34 -3 2.68 -3 2 C-2.01 1.34 -1.02 0.68 0 0 Z " fill="#B9B8B9" transform="translate(169,103)"/>
<path d="M0 0 C1.11375 0.556875 1.11375 0.556875 2.25 1.125 C0.93 2.115 -0.39 3.105 -1.75 4.125 C-1.75 3.135 -1.75 2.145 -1.75 1.125 C-3.4 1.125 -5.05 1.125 -6.75 1.125 C-4.02098495 -0.69434337 -3.21400584 -1.02263822 0 0 Z " fill="#DADAD9" transform="translate(166.75,106.875)"/>
<path d="M0 0 C0.66 1.65 1.32 3.3 2 5 C-0.02045442 4.39816251 -2.02111039 3.72693904 -4 3 C-4.33 2.34 -4.66 1.68 -5 1 C-2 0 -2 0 0 0 Z " fill="#6A6B6A" transform="translate(174,91)"/>
<path d="M0 0 C-0.66 1.32 -1.32 2.64 -2 4 C-3.65 3.67 -5.3 3.34 -7 3 C-4.49955934 -0.00052879 -4.2621484 0 0 0 Z " fill="#C3C8C8" transform="translate(148,127)"/>
</svg>
